<?xml version="1.0" standalone="no"?>
<!DOCTYPE svg PUBLIC "-//W3C//DTD SVG 20010904//EN"
 "http://www.w3.org/TR/2001/REC-SVG-20010904/DTD/svg10.dtd">
<svg version="1.0" xmlns="http://www.w3.org/2000/svg"
 width="3264.000000pt" height="3264.000000pt" viewBox="0 0 3264.000000 3264.000000"
 preserveAspectRatio="xMidYMid meet">

<g transform="translate(0.000000,3264.000000) scale(0.100000,-0.100000)"
fill="#000000" stroke="none">
<path d="M0 16320 l0 -16320 16320 0 16320 0 0 16320 0 16320 -16320 0 -16320
0 0 -16320z m16099 12536 c18 -46 -16 -125 -54 -126 -38 -1 -46 67 -15 118 24
39 56 43 69 8z m138 -938 c-3 -8 -6 -5 -6 6 -1 11 2 17 5 13 3 -3 4 -12 1 -19z
m113 -158 c36 0 196 -59 271 -100 75 -41 198 -152 224 -201 20 -38 54 -47 205
-53 516 -20 1032 -170 1465 -425 336 -199 719 -505 959 -768 167 -184 326
-409 346 -492 8 -35 20 -55 38 -67 15 -10 59 -45 97 -79 87 -76 204 -164 278
-207 198 -117 310 -190 346 -227 108 -110 156 -228 220 -546 48 -240 62 -659
37 -1080 -16 -272 -28 -360 -62 -475 -31 -103 -110 -276 -142 -310 -13 -14
-35 -45 -50 -70 -33 -56 -79 -107 -88 -97 -11 11 24 81 59 118 21 23 37 56 48
99 10 36 31 103 48 150 59 161 63 205 67 655 2 392 -11 677 -41 909 -15 114
-91 389 -125 457 -54 106 -177 221 -300 284 -19 9 -51 32 -70 50 -19 18 -51
43 -71 56 -38 26 -179 149 -241 212 -25 25 -40 33 -42 25 -19 -59 -35 -256
-52 -643 -3 -71 -7 -152 -10 -180 -12 -123 -15 -1535 -5 -1785 22 -503 60
-768 122 -846 16 -20 29 -44 29 -52 0 -46 -159 -288 -309 -472 -205 -251 -504
-503 -813 -684 -218 -127 -636 -314 -833 -373 -123 -36 -357 -100 -390 -106
-16 -4 -64 -14 -105 -22 -41 -9 -142 -28 -225 -42 -82 -14 -186 -32 -230 -39
-44 -8 -150 -18 -235 -24 -85 -5 -211 -14 -279 -20 -159 -13 -343 -13 -507 0
-71 6 -205 15 -299 20 -166 9 -214 15 -460 59 -727 131 -1296 352 -1775 690
-354 250 -677 598 -854 922 -42 77 -45 114 -12 150 46 49 81 251 113 644 26
332 23 1489 -6 2090 -21 444 -33 616 -46 667 -8 31 -21 29 -68 -12 -18 -15
-65 -56 -105 -91 -41 -35 -90 -75 -110 -89 -21 -13 -73 -55 -117 -93 -44 -38
-110 -87 -147 -108 -37 -22 -75 -50 -83 -62 -61 -85 -104 -160 -118 -203 -44
-136 -91 -402 -112 -639 -8 -93 -20 -213 -26 -265 -13 -115 -5 -702 11 -805
18 -118 62 -264 95 -320 18 -29 40 -75 49 -101 9 -26 33 -70 55 -98 21 -28 46
-65 55 -83 8 -17 34 -52 56 -78 38 -44 51 -75 31 -75 -25 0 -170 150 -231 238
-95 138 -114 174 -155 287 -86 243 -100 372 -100 945 0 471 2 503 49 770 32
183 106 370 184 461 32 37 292 217 405 279 15 8 46 30 70 48 23 18 84 64 136
103 52 39 101 77 108 85 8 8 18 14 22 14 8 0 34 49 66 125 57 136 318 456 526
646 611 557 1237 876 1889 963 144 19 336 36 417 36 77 0 109 14 129 56 9 19
48 64 88 102 92 87 219 151 356 181 52 11 111 26 130 34 31 14 39 13 83 -4 26
-10 56 -19 67 -19z m-2870 -7536 c47 -19 112 -64 142 -99 29 -34 52 -116 51
-185 -1 -134 -46 -302 -143 -540 -10 -25 -33 -83 -50 -130 -18 -47 -41 -105
-53 -129 -11 -24 -27 -64 -37 -90 -10 -25 -50 -127 -89 -226 -103 -258 -105
-264 -161 -435 -72 -220 -166 -540 -216 -735 -40 -154 -112 -362 -155 -446
-44 -85 -122 -169 -183 -198 -23 -11 -75 -23 -116 -26 -66 -6 -86 -4 -166 22
-110 36 -183 83 -265 170 -127 137 -195 285 -250 547 -26 120 -27 507 -3 636
35 189 56 281 90 396 124 432 340 809 629 1100 215 217 401 328 650 388 11 3
79 3 150 1 94 -2 143 -8 175 -21z m5930 -4 c272 -89 526 -294 783 -633 235
-310 423 -781 488 -1227 21 -138 23 -488 5 -570 -9 -38 -16 -83 -16 -101 0
-40 -63 -235 -102 -313 -87 -178 -228 -307 -403 -368 -133 -46 -242 -33 -338
40 -67 52 -107 108 -153 214 -39 90 -114 304 -114 327 0 8 -11 51 -25 95 -14
45 -59 198 -100 341 -42 143 -82 280 -90 305 -28 95 -143 411 -175 485 -5 11
-19 45 -31 75 -12 30 -43 107 -69 170 -26 63 -53 131 -60 150 -7 19 -21 53
-30 75 -10 22 -27 65 -38 95 -11 30 -38 103 -61 162 -23 59 -50 147 -62 195
-68 287 -6 439 201 498 81 22 302 14 390 -15z m-1164 -76 c101 -11 232 -95
290 -185 28 -45 59 -149 74 -254 7 -44 18 -94 26 -112 8 -17 14 -39 14 -50 0
-10 6 -30 14 -45 17 -33 53 -236 60 -343 26 -373 10 -709 -44 -975 -61 -295
-106 -450 -206 -707 -144 -368 -347 -715 -570 -972 -107 -123 -312 -322 -379
-367 -22 -14 -58 -41 -81 -59 -56 -46 -261 -169 -358 -214 -127 -60 -296 -123
-406 -150 -99 -24 -331 -51 -447 -51 -167 0 -464 43 -548 80 -11 4 -55 20 -99
35 -120 40 -268 111 -406 194 -318 194 -602 468 -814 786 -114 170 -262 440
-326 595 -166 401 -258 755 -296 1140 -18 192 -18 552 1 700 15 123 41 266 51
281 13 22 46 149 54 209 12 95 46 215 77 273 18 31 50 68 85 95 115 89 192
108 412 99 151 -7 317 -35 596 -101 168 -40 468 -97 660 -126 41 -6 118 -18
170 -26 65 -10 181 -14 371 -14 240 0 299 3 455 25 219 30 414 65 644 116 603
134 706 148 926 123z m884 -5219 c830 -103 1313 -595 1445 -1472 24 -164 38
-418 32 -598 -19 -560 -157 -983 -425 -1306 -246 -296 -616 -480 -1087 -540
-131 -17 -533 -17 -655 0 -428 58 -739 198 -980 440 -257 258 -406 592 -472
1061 -21 152 -18 694 5 840 78 492 253 864 534 1131 100 95 162 141 294 217
223 129 511 213 799 235 131 10 397 6 510 -8z m-8910 -95 l0 -50 -287 -2 -288
-3 -3 -1809 -2 -1808 197 5 c172 4 211 8 297 31 379 100 650 381 952 989 l69
137 52 0 c41 0 53 -4 53 -15 0 -8 -22 -290 -50 -625 -27 -335 -50 -615 -50
-621 0 -7 -356 -9 -1242 -6 -684 2 -1251 6 -1260 9 -25 6 -34 18 -11 14 17 -4
19 2 19 47 0 36 3 51 12 50 17 -4 15 2 -5 18 -14 12 -16 12 -8 0 6 -10 4 -12
-5 -6 -8 5 -11 4 -7 -2 3 -5 0 -10 -8 -10 -13 0 -12 4 2 19 15 17 11 23 -12
18 -5 -1 -1 8 9 19 18 20 15 26 -9 21 -5 -1 -2 7 6 17 9 10 15 30 14 45 -1 20
2 25 15 23 9 -2 17 3 17 10 0 7 -8 12 -17 10 -9 -2 -17 3 -17 10 0 7 8 12 16
10 14 -3 16 13 16 120 0 68 -2 122 -5 120 -3 -2 -5 57 -5 130 0 115 2 133 15
130 13 -2 16 8 15 58 -1 67 -9 91 -28 80 -7 -3 -5 2 4 13 19 24 19 70 -1 66
-12 -3 -12 0 1 15 11 13 15 38 14 84 0 42 3 66 10 66 7 0 12 -6 12 -13 0 -7
-3 -11 -7 -9 -4 2 -7 -2 -7 -9 0 -7 5 -13 11 -13 8 0 11 43 10 136 -1 75 -3
136 -4 136 -1 0 -3 70 -4 156 -1 139 1 157 15 154 11 -2 15 4 15 18 -2 30 -15
49 -29 40 -7 -3 -3 3 7 15 18 20 15 27 -9 22 -5 -1 -1 8 9 19 18 20 15 26 -9
21 -5 -1 -2 7 6 17 11 13 15 38 14 84 0 42 3 66 10 66 7 0 12 -6 12 -13 0 -7
-3 -11 -7 -9 -4 2 -7 -2 -7 -9 0 -7 5 -13 11 -13 8 0 11 46 10 146 -1 80 -3
146 -4 146 -1 0 -3 48 -4 106 -1 92 1 107 14 104 13 -3 15 12 15 99 0 103 -7
132 -28 119 -7 -3 -5 2 4 13 11 13 15 38 14 85 0 42 3 66 10 66 7 0 12 -6 12
-13 0 -7 -3 -11 -7 -9 -4 2 -7 -2 -7 -9 0 -7 5 -13 11 -13 8 0 11 43 10 136
-1 75 -3 136 -4 136 -1 0 -3 70 -4 156 -1 139 1 157 15 154 12 -2 15 5 15 28
-1 18 4 31 10 30 6 -1 11 4 11 11 0 7 -6 13 -13 13 -7 0 -10 -5 -7 -10 4 -6 1
-7 -7 -2 -8 5 -11 4 -7 -2 3 -5 0 -10 -7 -10 -7 0 -13 6 -13 13 0 7 3 12 6 11
3 -1 6 3 6 8 0 6 -4 9 -10 7 -5 -2 -1 6 9 17 18 20 15 26 -9 21 -5 -1 -2 7 6
17 11 13 15 38 14 84 0 42 3 66 10 66 7 0 12 -6 12 -13 0 -7 -3 -11 -7 -9 -4
2 -7 -2 -7 -9 0 -7 5 -13 12 -13 12 0 14 114 2 134 -6 9 149 12 688 13 l695 0
0 -50z m2960 5 l0 -44 -147 -3 -148 -3 -3 -1817 -2 -1818 150 0 150 0 0 -50 0
-50 -830 0 -830 0 0 45 0 44 148 3 147 3 0 1820 0 1820 -147 3 -148 3 0 44 0
45 830 0 830 0 0 -45z m1960 0 l0 -45 -184 0 c-120 0 -187 -4 -191 -11 -9 -13
906 -2742 916 -2732 10 11 949 2710 949 2728 0 13 -30 15 -210 15 l-210 0 0
45 0 45 415 0 415 0 0 -45 0 -44 -127 -3 -128 -3 -660 -1895 -661 -1895 -229
-3 -230 -2 -684 1857 c-376 1022 -692 1877 -702 1901 l-18 42 -120 0 -121 0 0
45 0 45 890 0 890 0 0 -45z m7150 0 l0 -45 -179 0 c-116 0 -182 -4 -186 -11
-7 -10 724 -1338 737 -1339 3 0 138 210 299 468 160 257 298 474 305 482 12
12 14 12 14 -3 0 -12 -4 -16 -12 -11 -9 5 -9 3 1 -9 7 -9 17 -15 21 -12 4 3
13 -1 18 -8 9 -10 6 -13 -13 -13 -13 0 -22 3 -19 7 2 4 -3 6 -13 5 -9 -2 -17
-10 -19 -20 -2 -13 1 -14 10 -7 14 12 26 5 26 -15 0 -7 -8 -11 -18 -9 -14 2
-18 -4 -18 -29 0 -18 5 -33 12 -33 6 0 10 13 9 29 -2 21 0 26 10 18 6 -5 14
-8 17 -5 3 3 10 -1 17 -8 9 -12 7 -14 -11 -13 -18 1 -22 -4 -22 -29 1 -20 5
-29 15 -27 9 3 9 -2 -4 -16 -9 -10 -15 -21 -12 -24 3 -3 -1 -11 -9 -17 -12
-10 -14 -9 -11 6 2 10 4 18 5 18 1 0 3 12 4 26 2 14 -2 26 -9 26 -7 0 -11 -22
-10 -58 l0 -58 -232 -373 c-127 -205 -239 -387 -249 -404 l-17 -30 103 -180
c57 -98 151 -260 208 -359 57 -99 104 -184 105 -189 1 -5 8 -18 16 -27 21 -26
22 -48 2 -44 -12 2 -17 -4 -17 -20 0 -16 5 -22 16 -20 9 2 17 -3 17 -10 0 -7
-8 -12 -18 -10 -18 4 -20 -10 -5 -34 6 -10 5 -12 -2 -7 -7 4 -12 1 -12 -8 0
-9 7 -13 18 -11 11 2 19 -3 19 -10 0 -7 -8 -12 -18 -10 -18 4 -20 -10 -5 -34
6 -10 5 -12 -2 -7 -7 4 -12 1 -12 -8 0 -9 7 -13 18 -11 11 2 19 -3 19 -10 0
-7 -8 -12 -19 -10 -11 2 -18 -2 -18 -11 0 -8 4 -13 8 -10 5 3 9 -1 9 -9 0 -8
-4 -12 -9 -9 -4 3 -8 -2 -8 -10 0 -9 7 -13 18 -11 11 2 19 -3 19 -10 0 -7 -8
-12 -19 -10 -11 2 -18 -2 -18 -11 0 -8 5 -12 10 -9 6 3 10 -1 10 -10 0 -9 -4
-13 -10 -10 -5 3 -10 -1 -10 -10 0 -9 -4 -14 -8 -11 -5 3 -9 -1 -9 -9 0 -8 4
-12 9 -9 4 3 8 -2 8 -11 0 -9 -4 -14 -8 -11 -5 3 -9 -1 -9 -9 0 -8 4 -12 9 -9
4 3 8 -2 8 -11 0 -9 -4 -14 -8 -11 -5 3 -9 -1 -9 -9 0 -8 4 -12 9 -9 4 3 8 -2
8 -11 0 -9 -4 -14 -8 -11 -5 3 -9 -1 -9 -9 0 -8 4 -12 9 -9 4 3 8 -2 8 -11 0
-9 -4 -14 -8 -11 -5 3 -9 -1 -9 -9 0 -8 4 -12 9 -9 4 3 8 -2 8 -11 0 -9 -4
-14 -8 -11 -5 3 -9 -1 -9 -9 0 -8 4 -12 9 -9 4 3 8 -2 8 -11 0 -9 -4 -14 -8
-11 -5 3 -9 -1 -9 -9 0 -8 4 -12 9 -9 4 3 8 -2 8 -11 0 -9 -4 -14 -8 -11 -5 3
-9 -1 -9 -9 0 -8 4 -12 9 -9 4 3 8 -2 8 -11 0 -9 -4 -14 -8 -11 -5 3 -9 -1 -9
-9 0 -8 4 -12 9 -9 4 3 8 -2 8 -11 0 -9 -4 -13 -10 -10 -5 3 -10 -1 -10 -10 0
-9 4 -14 8 -11 5 3 9 -1 9 -9 0 -8 -4 -12 -9 -9 -4 3 -8 -2 -8 -11 0 -9 5 -13
10 -10 6 3 10 -1 10 -10 0 -9 -4 -13 -10 -10 -5 3 -10 -1 -10 -10 0 -9 4 -14
8 -11 5 3 9 -1 9 -9 0 -8 -4 -12 -9 -9 -4 3 -8 -2 -8 -11 0 -9 -4 -14 -8 -11
-5 3 -9 -1 -9 -9 0 -8 4 -12 9 -9 4 3 8 -2 8 -11 0 -9 -4 -14 -8 -11 -5 3 -9
-1 -9 -9 0 -8 4 -12 9 -9 4 3 8 -2 8 -11 0 -9 -4 -14 -8 -11 -5 3 -9 -1 -9 -9
0 -8 4 -12 9 -9 4 3 8 -2 8 -11 0 -9 -4 -14 -8 -11 -5 3 -9 -1 -9 -9 0 -8 4
-12 9 -9 4 3 8 -2 8 -11 0 -9 -4 -13 -10 -10 -5 3 -10 -1 -10 -10 0 -9 5 -13
10 -10 6 3 10 -1 10 -10 0 -9 -4 -13 -10 -10 -5 3 -10 -1 -10 -10 0 -9 5 -13
10 -10 6 3 10 -1 10 -10 0 -9 -4 -13 -10 -10 -5 3 -10 -1 -10 -10 0 -9 5 -13
10 -10 6 3 10 -1 10 -10 0 -9 -4 -13 -10 -10 -5 3 -10 -1 -10 -10 0 -9 5 -13
10 -10 6 3 10 -1 10 -10 0 -9 -4 -13 -10 -10 -5 3 -10 -1 -10 -10 0 -9 -4 -14
-8 -11 -5 3 -9 -1 -9 -9 0 -8 4 -12 9 -9 4 3 8 -11 8 -31 0 -20 -4 -34 -8 -31
-5 3 -9 -1 -9 -9 0 -8 4 -12 9 -9 4 3 8 -11 8 -31 0 -20 -4 -34 -8 -31 -5 3
-9 -1 -9 -9 0 -8 4 -12 9 -9 4 3 8 -9 8 -25 0 -17 -1 -31 -2 -31 -2 0 -153 -3
-335 -7 l-333 -6 0 46 0 47 180 0 c118 0 180 4 180 10 0 6 -106 199 -236 428
-130 229 -313 553 -407 720 -95 166 -176 301 -182 299 -14 -5 -874 -1440 -868
-1449 2 -5 132 -8 289 -8 l284 0 0 -45 0 -45 -560 0 -560 0 0 45 0 45 182 2
183 3 482 809 c365 612 480 813 473 825 -5 9 -263 462 -573 1006 l-565 990
-151 3 -151 3 0 49 0 50 920 0 920 0 0 -45z m1025 34 c-3 -4 -1 -11 5 -14 7
-4 7 -11 2 -18 -5 -7 -8 -19 -7 -28 3 -15 -19 -17 -191 -18 l-194 -2 0 46 0
46 195 -2 c107 -1 192 -5 190 -10z m-14478 -24 c0 -6 -6 -12 -12 -12 -6 0 -12
6 -12 12 0 6 6 12 12 12 6 0 12 -6 12 -12z m0 -40 c0 -6 -6 -12 -12 -12 -6 0
-12 6 -12 12 0 6 6 12 12 12 6 0 12 -6 12 -12z m-20 -298 c0 -8 -6 -14 -14
-14 -9 0 -10 4 -2 14 6 7 12 13 14 13 1 0 2 -6 2 -13z m14492 -80 c8 -10 7
-14 -2 -14 -8 0 -14 6 -14 14 0 7 1 13 2 13 2 0 8 -6 14 -13z m-14512 -302 c0
-6 -6 -12 -12 -12 -6 0 -12 6 -12 12 0 6 6 12 12 12 6 0 12 -6 12 -12z m0 -40
c0 -6 -6 -12 -12 -12 -6 0 -12 6 -12 12 0 6 6 12 12 12 6 0 12 -6 12 -12z m0
-40 c0 -6 -6 -12 -12 -12 -6 0 -12 6 -12 12 0 6 6 12 12 12 6 0 12 -6 12 -12z
m0 -40 c0 -6 -6 -12 -12 -12 -6 0 -12 6 -12 12 0 6 6 12 12 12 6 0 12 -6 12
-12z m0 -40 c0 -6 -6 -12 -12 -12 -6 0 -12 6 -12 12 0 6 6 12 12 12 6 0 12 -6
12 -12z m-20 -218 c0 -8 -6 -14 -14 -14 -9 0 -10 4 -2 14 6 7 12 13 14 13 1 0
2 -6 2 -13z m0 -40 c0 -8 -6 -14 -14 -14 -9 0 -10 4 -2 14 6 7 12 13 14 13 1
0 2 -6 2 -13z m0 -40 c0 -8 -6 -14 -14 -14 -9 0 -10 4 -2 14 6 7 12 13 14 13
1 0 2 -6 2 -13z m0 -42 c0 -6 -6 -12 -12 -12 -6 0 -12 6 -12 12 0 6 6 12 12
12 6 0 12 -6 12 -12z m0 -40 c0 -6 -6 -12 -12 -12 -6 0 -12 6 -12 12 0 6 6 12
12 12 6 0 12 -6 12 -12z m-20 -380 c0 -6 -6 -12 -12 -12 -6 0 -12 6 -12 12 0
6 6 12 12 12 6 0 12 -6 12 -12z m0 -40 c0 -6 -6 -12 -12 -12 -6 0 -12 6 -12
12 0 6 6 12 12 12 6 0 12 -6 12 -12z m0 -40 c0 -6 -6 -12 -12 -12 -6 0 -12 6
-12 12 0 6 6 12 12 12 6 0 12 -6 12 -12z m-20 -298 c0 -8 -6 -14 -14 -14 -9 0
-10 4 -2 14 6 7 12 13 14 13 1 0 2 -6 2 -13z m-20 -382 c0 -6 -6 -12 -12 -12
-6 0 -12 6 -12 12 0 6 6 12 12 12 6 0 12 -6 12 -12z m0 -40 c0 -6 -6 -12 -12
-12 -6 0 -12 6 -12 12 0 6 6 12 12 12 6 0 12 -6 12 -12z m0 -40 c0 -6 -6 -12
-12 -12 -6 0 -12 6 -12 12 0 6 6 12 12 12 6 0 12 -6 12 -12z m0 -40 c0 -6 -6
-12 -12 -12 -6 0 -12 6 -12 12 0 6 6 12 12 12 6 0 12 -6 12 -12z m0 -40 c0 -6
-6 -12 -12 -12 -6 0 -12 6 -12 12 0 6 6 12 12 12 6 0 12 -6 12 -12z m14463
-161 c0 -8 -5 -12 -10 -9 -6 4 -8 11 -5 16 9 14 15 11 15 -7z m0 -40 c0 -8 -5
-12 -10 -9 -6 4 -8 11 -5 16 9 14 15 11 15 -7z m0 -40 c0 -8 -5 -12 -10 -9 -6
4 -8 11 -5 16 9 14 15 11 15 -7z m0 -40 c0 -8 -5 -12 -10 -9 -6 4 -8 11 -5 16
9 14 15 11 15 -7z m-14483 -17 c0 -8 -6 -14 -14 -14 -9 0 -10 4 -2 14 6 7 12
13 14 13 1 0 2 -6 2 -13z m0 -42 c0 -6 -6 -12 -12 -12 -6 0 -12 6 -12 12 0 6
6 12 12 12 6 0 12 -6 12 -12z m0 -40 c0 -6 -6 -12 -12 -12 -6 0 -12 6 -12 12
0 6 6 12 12 12 6 0 12 -6 12 -12z m-20 -380 c0 -6 -6 -12 -12 -12 -6 0 -12 6
-12 12 0 6 6 12 12 12 6 0 12 -6 12 -12z m0 -40 c0 -6 -6 -12 -12 -12 -6 0
-12 6 -12 12 0 6 6 12 12 12 6 0 12 -6 12 -12z m0 -40 c0 -6 -6 -12 -12 -12
-6 0 -12 6 -12 12 0 6 6 12 12 12 6 0 12 -6 12 -12z m0 -40 c0 -6 -6 -12 -12
-12 -6 0 -12 6 -12 12 0 6 6 12 12 12 6 0 12 -6 12 -12z m14463 -121 c0 -8 -5
-12 -10 -9 -6 4 -8 11 -5 16 9 14 15 11 15 -7z m-3 -46 c-3 -8 -6 -5 -6 6 -1
11 2 17 5 13 3 -3 4 -12 1 -19z m3 -34 c0 -8 -5 -12 -10 -9 -6 4 -8 11 -5 16
9 14 15 11 15 -7z m-3 -46 c-3 -8 -6 -5 -6 6 -1 11 2 17 5 13 3 -3 4 -12 1
-19z m-14480 -11 c0 -8 -6 -14 -14 -14 -9 0 -10 4 -2 14 6 7 12 13 14 13 1 0
2 -6 2 -13z m0 -42 c0 -6 -6 -12 -12 -12 -6 0 -12 6 -12 12 0 6 6 12 12 12 6
0 12 -6 12 -12z m14480 -27 c-3 -8 -6 -5 -6 6 -1 11 2 17 5 13 3 -3 4 -12 1
-19z m-10277 -1549 c0 -37 -104 -415 -135 -493 -5 -10 23 13 61 50 149 148
316 189 471 114 69 -33 104 -68 133 -133 112 -253 -117 -602 -430 -658 -184
-33 -329 76 -291 218 34 125 151 217 304 239 40 5 47 4 47 -11 0 -34 -52 -71
-109 -79 -120 -16 -191 -87 -191 -192 0 -39 5 -51 33 -79 120 -120 344 -29
450 181 108 217 94 409 -35 475 -89 46 -232 1 -351 -110 -77 -72 -107 -127
-138 -253 -18 -73 -25 -88 -41 -88 -56 0 -82 -45 -127 -217 -23 -90 -31 -109
-48 -111 -19 -3 -11 36 108 510 71 282 128 516 129 521 0 4 -19 7 -43 7 -50 0
-57 4 -50 31 5 16 15 19 77 19 78 0 116 14 131 48 10 22 45 31 45 11z m6648
-35 c51 -36 10 -134 -57 -134 -75 0 -84 96 -13 134 35 19 43 19 70 0z m-584
-121 c-3 -16 -8 -34 -10 -42 -7 -21 126 -854 138 -868 6 -7 21 -13 33 -13 18
0 22 -4 18 -20 -5 -19 -14 -20 -144 -20 -134 0 -139 1 -139 21 0 18 4 20 45
13 25 -3 45 -2 45 2 -1 5 -9 56 -18 114 l-18 105 -254 2 -255 3 -45 -66 c-94
-138 -95 -154 -9 -154 42 0 49 -3 49 -20 0 -19 -7 -20 -135 -20 -128 0 -135 1
-135 20 0 15 7 20 26 20 37 0 56 24 260 325 97 143 232 342 301 443 l124 182
65 0 64 0 -6 -27z m1663 -16 c-8 -35 0 -101 42 -376 29 -183 59 -354 67 -379
35 -106 92 -152 187 -152 150 0 277 94 277 205 0 50 -31 75 -154 124 -120 49
-171 87 -187 141 -34 114 72 260 218 299 82 22 223 9 223 -20 0 -6 5 -7 12 -3
7 5 8 3 2 -7 -12 -20 -14 -40 -3 -33 5 3 7 9 5 13 -3 4 1 8 8 8 7 0 13 -6 13
-13 0 -7 -4 -11 -9 -8 -4 3 -8 -2 -8 -11 0 -9 4 -14 8 -11 5 3 9 -1 9 -8 0
-20 -24 -13 -48 13 -28 30 -61 41 -122 41 -75 -1 -129 -28 -161 -82 -53 -91
-29 -145 82 -188 142 -56 228 -120 200 -148 -6 -6 -7 -18 -3 -29 11 -26 13
-63 3 -57 -4 3 -6 9 -4 13 3 4 -2 8 -10 8 -10 0 -11 -4 -4 -11 12 -12 14 -39
2 -32 -5 3 -9 -1 -9 -8 0 -7 6 -13 13 -13 7 0 11 4 8 8 -2 4 -1 10 4 13 4 2 8
-10 8 -28 0 -20 -5 -33 -13 -33 -9 0 -10 4 -3 12 7 8 5 12 -3 12 -7 0 -13 -11
-13 -23 0 -13 4 -20 11 -16 5 3 4 -1 -2 -10 -7 -8 -10 -17 -7 -20 9 -10 -72
-67 -138 -98 -78 -36 -195 -53 -281 -39 -124 20 -213 94 -245 201 l-17 58
-256 0 -256 0 -63 -95 c-37 -56 -60 -101 -56 -110 4 -11 20 -15 61 -15 48 0
55 -2 55 -20 0 -19 -7 -20 -136 -20 -124 0 -135 2 -132 18 2 9 14 18 28 20 14
2 33 11 44 20 10 10 158 223 329 475 l311 457 62 0 61 0 -10 -43z m-9007 -88
c0 -6 -9 -47 -21 -91 -11 -44 -18 -83 -15 -86 3 -2 27 18 53 45 64 68 121 95
198 96 96 1 141 -32 154 -112 l6 -35 45 48 c62 66 128 98 205 99 106 1 175
-55 175 -142 0 -18 -23 -122 -50 -233 -28 -110 -48 -203 -45 -206 3 -3 11 0
17 6 7 7 25 12 40 12 56 0 86 -97 54 -174 -29 -70 -130 -114 -198 -87 -40 15
-68 67 -68 123 0 26 27 156 60 289 33 133 60 261 60 285 0 53 -19 74 -68 74
-83 0 -166 -70 -218 -183 -22 -49 -143 -499 -144 -534 0 -9 17 -13 51 -13 43
0 50 -3 47 -17 -3 -16 -20 -18 -160 -21 -138 -2 -157 -1 -152 13 4 10 19 15
43 15 l38 0 77 313 c42 171 76 331 76 354 0 52 -20 73 -68 73 -81 0 -167 -70
-219 -179 -24 -51 -142 -493 -143 -533 0 -15 9 -18 56 -18 47 0 55 -3 52 -17
-3 -15 -16 -18 -94 -20 l-90 -1 -1 44 c-1 27 2 42 8 38 6 -3 5 3 -3 15 -10 16
-10 23 0 33 6 6 12 19 11 27 0 11 -3 10 -8 -4 -7 -15 -9 -11 -9 18 0 20 4 40
9 43 14 8 11 36 -3 28 -10 -6 -10 -4 0 7 6 7 12 27 12 44 0 17 5 36 12 43 7 7
9 12 6 12 -3 0 -1 19 4 43 5 23 12 53 14 67 3 14 16 69 30 122 32 127 32 128
-11 128 -25 0 -35 4 -35 15 0 17 23 29 87 45 42 10 93 58 93 86 0 8 7 14 15
14 8 0 15 -5 15 -11z m3040 4 c0 -5 -9 -42 -20 -83 -11 -41 -20 -79 -20 -84 0
-5 22 12 49 37 61 58 120 87 185 94 64 6 103 -9 117 -44 19 -51 -27 -113 -85
-113 -32 0 -69 46 -61 77 7 30 -2 29 -56 -5 -61 -39 -114 -103 -155 -188 -32
-66 -134 -432 -134 -480 0 -27 17 -34 87 -34 46 0 54 -3 51 -17 -3 -16 -22
-18 -206 -21 -192 -2 -202 -1 -202 16 0 16 10 20 52 25 28 4 57 12 64 19 12
12 164 600 164 634 0 15 -8 16 -61 11 -58 -7 -60 -6 -57 15 3 18 15 24 88 40
91 19 127 39 148 81 12 24 52 39 52 20z m1880 -4 c0 -6 -9 -47 -21 -91 -11
-44 -18 -82 -16 -84 2 -2 25 17 52 42 26 26 73 58 104 73 121 56 268 23 305
-69 9 -22 16 -51 16 -64 0 -13 -22 -112 -49 -220 -46 -188 -47 -196 -27 -190
42 14 60 9 84 -26 20 -29 23 -44 20 -90 -6 -92 -70 -150 -163 -150 -40 0 -52
5 -80 33 -57 57 -56 78 14 364 70 283 76 336 42 365 -50 39 -165 6 -239 -71
-69 -72 -99 -144 -162 -394 -38 -153 -54 -234 -47 -239 6 -3 25 -4 43 -1 45 7
64 -1 57 -26 -5 -20 -12 -21 -194 -21 l-188 0 8 23 c7 18 18 23 67 27 l58 5
78 310 c42 171 78 318 78 329 0 17 -5 18 -61 12 -59 -7 -60 -6 -57 15 3 19 14
25 85 40 95 20 128 39 142 80 7 19 17 29 30 29 12 0 21 -5 21 -11z m2980 -19
c0 -27 -162 -659 -175 -683 -24 -46 -20 -86 12 -98 51 -19 113 30 113 89 0 25
26 36 34 16 16 -42 -27 -121 -82 -152 -61 -34 -116 -30 -157 11 -58 58 -57 75
23 402 40 160 72 294 72 298 0 4 -21 7 -46 7 -41 0 -45 2 -42 23 3 20 10 23
78 28 81 6 113 18 130 49 11 21 40 28 40 10z m-5378 -30 c56 -16 119 -69 146
-122 28 -54 34 -156 12 -207 -20 -49 -50 -55 -248 -47 -187 8 -217 4 -259 -36
-13 -12 -27 -44 -34 -75 -10 -45 -16 -53 -32 -51 -11 2 -29 15 -40 30 -18 24
-19 30 -7 59 21 51 60 90 115 115 46 22 63 24 207 24 87 0 159 4 163 9 3 6 6
42 6 80 1 88 -19 127 -81 159 -91 47 -220 13 -314 -84 -177 -179 -195 -517
-33 -601 65 -33 224 -8 315 51 20 13 59 47 87 75 53 55 65 60 85 36 11 -14 4
-25 -53 -81 -214 -208 -559 -204 -661 9 -69 145 -25 341 111 488 89 96 201
159 323 183 36 7 149 -1 192 -14z m1843 -11 c80 -30 148 -95 176 -168 17 -47
20 -70 16 -141 -6 -105 -32 -174 -98 -262 -160 -214 -463 -299 -674 -190 -203
104 -201 407 4 611 76 76 196 144 294 167 83 19 206 11 282 -17z m1747 11 c56
-16 119 -69 146 -122 28 -54 34 -156 12 -207 -19 -47 -47 -53 -263 -49 -234 4
-239 2 -272 -101 -22 -69 -42 -77 -77 -30 -19 25 -19 28 -3 65 22 53 51 83
110 110 46 22 63 24 208 24 181 0 172 -5 172 95 0 116 -72 181 -190 172 -155
-11 -284 -143 -335 -343 -41 -161 -12 -290 79 -351 27 -18 48 -23 102 -23 122
0 260 63 331 151 34 42 49 47 68 24 11 -14 4 -25 -53 -81 -140 -136 -340 -187
-508 -129 -178 62 -237 280 -133 493 78 159 239 282 414 316 36 7 149 -1 192
-14z m3605 -137 c0 -9 -4 -10 -14 -2 -7 6 -13 12 -13 14 0 1 6 2 13 2 8 0 14
-6 14 -14z m0 -38 c0 -8 -4 -12 -9 -9 -5 3 -6 10 -3 15 9 13 12 11 12 -6z m0
-38 c0 -8 -6 -14 -14 -14 -9 0 -10 4 -2 14 6 7 12 13 14 13 1 0 2 -6 2 -13z
m-17 -252 c0 -2 -6 -8 -13 -14 -10 -8 -14 -7 -14 2 0 8 6 14 14 14 7 0 13 -1
13 -2z"/>
<path d="M15730 27221 c-11 -21 -14 -638 -4 -679 7 -26 50 -40 67 -23 13 13
23 601 12 679 -6 38 -9 42 -35 42 -19 0 -33 -7 -40 -19z"/>
<path d="M14708 27185 c-53 -28 -86 -67 -119 -140 -20 -44 -23 -67 -23 -180 0
-112 4 -138 23 -188 25 -65 72 -117 131 -147 59 -30 175 -28 239 5 67 33 114
95 115 149 1 39 0 41 -29 41 -26 0 -33 -7 -55 -49 -14 -27 -37 -58 -51 -68
-54 -40 -146 -42 -203 -5 -13 9 -36 37 -52 64 -29 47 -29 50 -29 198 0 146 1
151 27 191 44 68 82 89 158 89 83 0 119 -24 154 -100 21 -46 29 -55 51 -55 78
0 15 149 -86 200 -58 30 -188 27 -251 -5z"/>
<path d="M15992 27201 c-18 -11 -11 -51 11 -65 25 -16 52 4 52 40 0 24 -5 29
-25 32 -14 1 -31 -2 -38 -7z"/>
<path d="M15347 27025 c-121 -45 -174 -158 -153 -329 15 -115 103 -186 231
-186 63 0 76 4 120 33 36 24 49 38 47 52 -6 35 -20 41 -50 22 -81 -53 -144
-59 -202 -17 -28 20 -70 85 -70 109 0 5 7 17 16 25 13 13 42 16 159 16 173 0
181 4 170 86 -13 107 -65 170 -157 193 -57 13 -63 13 -111 -4z m122 -70 c32
-16 64 -75 59 -108 -3 -21 -8 -22 -113 -25 -136 -3 -145 2 -125 60 26 75 110
109 179 73z"/>
<path d="M16795 27014 c-106 -39 -160 -163 -134 -307 22 -122 99 -191 214
-191 94 0 168 48 206 134 27 60 28 190 2 246 -49 108 -174 160 -288 118z m136
-48 c48 -20 76 -54 94 -112 19 -63 19 -103 -1 -170 -21 -74 -69 -114 -137
-114 -102 0 -157 72 -157 205 0 104 29 160 99 192 36 16 63 16 102 -1z"/>
<path d="M15992 27012 c-9 -7 -12 -63 -10 -247 3 -214 5 -239 21 -249 12 -8
22 -8 35 0 15 10 17 34 17 255 l0 244 -25 3 c-14 1 -31 -2 -38 -6z"/>
<path d="M16193 27004 c-3 -8 1 -32 10 -52 23 -58 42 -109 82 -222 20 -58 41
-114 46 -125 4 -11 12 -36 17 -55 7 -31 12 -35 42 -35 37 0 39 2 70 100 24 74
36 108 95 270 39 110 38 105 36 123 -2 27 -81 5 -81 -23 0 -22 -97 -306 -109
-318 -11 -11 -45 49 -56 103 -4 19 -11 41 -16 50 -9 19 -38 106 -46 140 -3 14
-12 33 -21 43 -19 21 -61 22 -69 1z"/>
<path d="M17210 26997 c0 -7 29 -55 65 -107 36 -52 65 -104 65 -115 0 -11 -29
-63 -65 -115 -63 -92 -81 -140 -50 -140 19 0 50 34 85 95 42 73 68 99 86 84
17 -14 74 -97 74 -107 0 -15 61 -73 73 -69 26 8 15 36 -49 132 -37 55 -66 110
-66 121 0 12 29 66 65 120 36 54 63 102 61 106 -3 4 -16 8 -29 8 -19 0 -33
-14 -65 -69 -23 -38 -49 -76 -59 -86 -18 -15 -20 -15 -40 7 -12 12 -34 43 -48
68 -14 25 -33 53 -41 63 -17 20 -62 23 -62 4z"/>
<path d="M15490 26300 c-592 -27 -1006 -58 -1169 -86 -347 -60 -710 -308 -933
-636 -98 -144 -176 -343 -202 -513 -61 -394 -39 -2230 29 -2490 66 -251 183
-453 375 -645 192 -192 389 -314 620 -383 129 -39 198 -48 550 -77 1137 -91
2007 -100 3000 -29 319 23 422 37 547 78 406 133 784 500 928 901 48 136 65
248 78 510 26 555 8 1860 -29 2115 -76 525 -532 1015 -1066 1144 -121 30 -551
68 -1073 97 -326 18 -1377 27 -1655 14z m2580 -2314 c8 -3 25 -23 36 -44 21
-36 21 -48 22 -462 0 -234 3 -437 7 -452 4 -14 2 -36 -5 -48 -9 -16 -9 -25 0
-35 8 -10 8 -20 2 -32 -7 -11 -7 -24 0 -36 6 -11 6 -23 0 -30 -6 -7 -6 -39 -1
-81 5 -38 6 -73 3 -78 -4 -5 -6 -74 -5 -153 1 -128 -1 -145 -19 -168 -11 -14
-20 -30 -20 -35 0 -16 -73 -21 -283 -18 -211 3 -220 5 -249 60 -6 10 -11 114
-12 240 0 121 -5 227 -9 234 -5 7 -5 18 1 25 5 7 7 37 5 67 -4 62 -4 55 -4
210 1 63 -1 261 -3 440 -3 253 -1 328 9 340 7 8 15 24 17 35 1 10 14 23 28 27
29 9 458 4 480 -6z m-3256 -2 c9 -3 16 -10 16 -15 0 -6 9 -22 20 -37 18 -24
20 -36 13 -83 -5 -30 -7 -90 -5 -134 5 -114 5 -105 -3 -280 -11 -262 -12 -379
-3 -398 6 -12 5 -30 -1 -49 -7 -19 -7 -36 -1 -47 6 -12 5 -22 -1 -28 -8 -8 -7
-17 1 -33 7 -13 8 -26 2 -33 -5 -7 -9 -111 -10 -231 l-1 -220 -36 -35 -35 -36
-195 -3 c-195 -4 -196 -3 -240 22 -24 14 -47 35 -50 47 -4 11 -8 84 -10 162
-2 78 -4 147 -5 152 0 6 3 37 8 71 6 47 5 63 -6 73 -11 11 -11 16 3 31 11 13
13 20 5 25 -6 4 -9 18 -5 33 3 15 1 42 -4 59 -6 21 -6 35 0 39 6 3 7 19 4 34
-3 16 -2 31 4 35 8 4 8 12 0 26 -7 15 -7 24 1 34 7 8 8 20 4 26 -10 17 -13
383 -4 504 4 55 4 104 -1 109 -4 5 -3 18 2 28 7 14 7 24 -2 34 -10 12 -7 24
12 64 13 27 31 51 39 53 23 7 466 8 484 1z"/>
<path d="M19762 17415 c0 -16 2 -22 5 -12 2 9 2 23 0 30 -3 6 -5 -1 -5 -18z"/>
<path d="M15945 19334 c-298 -11 -517 -27 -570 -41 -268 -71 -459 -268 -547
-563 -10 -35 -13 -149 -13 -505 1 -411 3 -467 19 -524 40 -144 113 -267 217
-366 79 -75 106 -94 195 -138 113 -56 172 -65 515 -82 371 -18 552 -19 926 -5
364 14 453 23 544 53 193 65 363 220 449 411 62 136 63 142 67 619 5 475 2
515 -52 649 -59 146 -194 300 -330 377 -119 68 -197 87 -425 100 -188 12 -830
21 -995 15z m284 -1088 c10 -12 77 -29 91 -23 3 1 16 -8 29 -20 13 -12 36 -25
52 -28 35 -8 59 -44 59 -90 0 -29 -9 -46 -47 -87 -95 -102 -176 -131 -250 -90
-47 25 -173 151 -173 173 0 33 22 68 54 83 18 8 40 24 50 35 10 11 31 23 46
26 16 3 34 13 41 21 15 18 33 18 48 0z"/>
<path d="M18672 14830 c-341 -48 -507 -291 -562 -825 -40 -391 -40 -1663 0
-2050 24 -228 73 -424 138 -550 46 -88 155 -201 232 -238 87 -42 201 -67 307
-67 270 0 444 100 548 314 82 169 124 387 146 767 14 244 6 1619 -10 1789 -60
621 -225 845 -636 864 -55 3 -129 1 -163 -4z"/>
<path d="M8823 14705 c0 -6 6 -12 12 -12 6 0 12 6 12 12 0 6 -6 12 -12 12 -6
0 -12 -6 -12 -12z"/>
<path d="M8823 14665 c0 -6 6 -12 12 -12 6 0 12 6 12 12 0 6 -6 12 -12 12 -6
0 -12 -6 -12 -12z"/>
<path d="M8814 14628 c-3 -4 -4 -8 -2 -9 25 -6 35 -5 35 5 0 14 -25 17 -33 4z"/>
<path d="M8814 14588 c-3 -4 -4 -8 -2 -9 25 -6 35 -5 35 5 0 14 -25 17 -33 4z"/>
<path d="M8803 14445 c0 -6 6 -12 12 -12 6 0 12 6 12 12 0 6 -6 12 -12 12 -6
0 -12 -6 -12 -12z"/>
<path d="M8803 14405 c0 -6 6 -12 12 -12 6 0 12 6 12 12 0 6 -6 12 -12 12 -6
0 -12 -6 -12 -12z"/>
<path d="M8803 14365 c0 -6 6 -12 12 -12 6 0 12 6 12 12 0 6 -6 12 -12 12 -6
0 -12 -6 -12 -12z"/>
<path d="M8803 14325 c0 -6 6 -12 12 -12 6 0 12 6 12 12 0 6 -6 12 -12 12 -6
0 -12 -6 -12 -12z"/>
<path d="M8803 14285 c0 -6 6 -12 12 -12 6 0 12 6 12 12 0 6 -6 12 -12 12 -6
0 -12 -6 -12 -12z"/>
<path d="M8803 14245 c0 -6 6 -12 12 -12 6 0 12 6 12 12 0 6 -6 12 -12 12 -6
0 -12 -6 -12 -12z"/>
<path d="M8783 13865 c0 -6 6 -12 12 -12 6 0 12 6 12 12 0 6 -6 12 -12 12 -6
0 -12 -6 -12 -12z"/>
<path d="M8783 13825 c0 -6 6 -12 12 -12 6 0 12 6 12 12 0 6 -6 12 -12 12 -6
0 -12 -6 -12 -12z"/>
<path d="M8774 13788 c-3 -4 -4 -8 -2 -9 25 -6 35 -5 35 5 0 14 -25 17 -33 4z"/>
<path d="M8763 13525 c0 -6 6 -12 12 -12 6 0 12 6 12 12 0 6 -6 12 -12 12 -6
0 -12 -6 -12 -12z"/>
<path d="M8763 13485 c0 -6 6 -12 12 -12 6 0 12 6 12 12 0 6 -6 12 -12 12 -6
0 -12 -6 -12 -12z"/>
<path d="M8763 13445 c0 -6 6 -12 12 -12 6 0 12 6 12 12 0 6 -6 12 -12 12 -6
0 -12 -6 -12 -12z"/>
<path d="M8763 13405 c0 -6 6 -12 12 -12 6 0 12 6 12 12 0 6 -6 12 -12 12 -6
0 -12 -6 -12 -12z"/>
<path d="M8743 13025 c0 -6 6 -12 12 -12 6 0 12 6 12 12 0 6 -6 12 -12 12 -6
0 -12 -6 -12 -12z"/>
<path d="M8743 12985 c0 -6 6 -12 12 -12 6 0 12 6 12 12 0 6 -6 12 -12 12 -6
0 -12 -6 -12 -12z"/>
<path d="M8734 12948 c-3 -4 -4 -8 -2 -9 25 -6 35 -5 35 5 0 14 -25 17 -33 4z"/>
<path d="M8734 12908 c-3 -4 -4 -8 -2 -9 25 -6 35 -5 35 5 0 14 -25 17 -33 4z"/>
<path d="M8734 12868 c-3 -4 -4 -8 -2 -9 25 -6 35 -5 35 5 0 14 -25 17 -33 4z"/>
<path d="M8724 12745 c0 -17 5 -32 11 -32 6 0 11 15 11 32 0 17 -5 32 -11 32
-6 0 -11 -15 -11 -32z"/>
<path d="M8723 12685 c0 -6 6 -12 12 -12 6 0 12 6 12 12 0 6 -6 12 -12 12 -6
0 -12 -6 -12 -12z"/>
<path d="M8723 12645 c0 -6 6 -12 12 -12 6 0 12 6 12 12 0 6 -6 12 -12 12 -6
0 -12 -6 -12 -12z"/>
<path d="M8723 12605 c0 -6 6 -12 12 -12 6 0 12 6 12 12 0 6 -6 12 -12 12 -6
0 -12 -6 -12 -12z"/>
<path d="M8723 12565 c0 -6 6 -12 12 -12 6 0 12 6 12 12 0 6 -6 12 -12 12 -6
0 -12 -6 -12 -12z"/>
<path d="M8703 12185 c0 -6 6 -12 12 -12 6 0 12 6 12 12 0 6 -6 12 -12 12 -6
0 -12 -6 -12 -12z"/>
<path d="M8703 12145 c0 -6 6 -12 12 -12 6 0 12 6 12 12 0 6 -6 12 -12 12 -6
0 -12 -6 -12 -12z"/>
<path d="M8694 12108 c-3 -4 -4 -8 -2 -9 25 -6 35 -5 35 5 0 14 -25 17 -33 4z"/>
<path d="M8703 12065 c0 -6 6 -12 12 -12 6 0 12 6 12 12 0 6 -6 12 -12 12 -6
0 -12 -6 -12 -12z"/>
<path d="M8694 12028 c-3 -4 -4 -8 -2 -9 25 -6 35 -5 35 5 0 14 -25 17 -33 4z"/>
<path d="M8683 11845 c0 -6 6 -12 12 -12 6 0 12 6 12 12 0 6 -6 12 -12 12 -6
0 -12 -6 -12 -12z"/>
<path d="M8683 11805 c0 -6 6 -12 12 -12 6 0 12 6 12 12 0 6 -6 12 -12 12 -6
0 -12 -6 -12 -12z"/>
<path d="M8683 11765 c0 -6 6 -12 12 -12 6 0 12 6 12 12 0 6 -6 12 -12 12 -6
0 -12 -6 -12 -12z"/>
<path d="M8683 11725 c0 -6 6 -12 12 -12 6 0 12 6 12 12 0 6 -6 12 -12 12 -6
0 -12 -6 -12 -12z"/>
<path d="M8663 11305 c0 -6 6 -12 12 -12 6 0 12 6 12 12 0 6 -6 12 -12 12 -6
0 -12 -6 -12 -12z"/>
<path d="M8654 11268 c-3 -4 -4 -8 -2 -9 25 -6 35 -5 35 5 0 14 -25 17 -33 4z"/>
<path d="M8655 11230 c-3 -5 -5 -10 -3 -11 33 -8 38 -7 27 7 -14 17 -16 17
-24 4z"/>
<path d="M23285 14860 c-3 -5 -3 -10 1 -10 4 0 -1 -10 -12 -22 -10 -13 -15
-20 -10 -16 5 4 15 3 22 -3 8 -7 14 -7 19 1 3 5 3 10 -1 10 -3 0 -1 6 5 14 8
10 8 16 -3 25 -10 8 -16 9 -21 1z m16 -24 c-6 -7 -7 -17 -3 -21 4 -5 1 -5 -6
-1 -9 6 -10 11 -3 20 6 7 7 17 3 21 -4 5 -1 5 6 1 9 -6 10 -11 3 -20z"/>
<path d="M18586 8993 l-176 -258 221 -3 c122 -1 224 0 226 2 4 4 -60 441 -72
494 -3 12 -9 22 -14 22 -4 0 -88 -116 -185 -257z"/>
<path d="M20257 8999 c-97 -143 -175 -265 -172 -270 6 -9 437 -13 447 -4 8 8
-77 528 -87 531 -5 2 -90 -114 -188 -257z"/>
<path d="M12270 8619 c-1 -8 -9 -32 -20 -54 -24 -49 -25 -69 -4 -89 41 -42
124 11 124 78 0 38 -21 59 -72 71 -20 5 -28 3 -28 -6z"/>
<path d="M11341 8604 c0 -11 3 -14 6 -6 3 7 2 16 -1 19 -3 4 -6 -2 -5 -13z"/>
<path d="M16824 8592 c-40 -93 -35 -122 20 -122 44 0 75 27 82 70 7 43 -9 67
-54 79 -31 9 -33 8 -48 -27z"/>
<path d="M15665 9164 c-180 -58 -304 -253 -293 -463 7 -128 52 -201 144 -231
56 -19 163 -8 227 24 250 122 333 532 132 656 -48 29 -142 36 -210 14z"/>
</g>
</svg>
